# xmcd CD database file
#
# Track frame offsets:
#	150
#	14607
#	26082
#	28227
#	45765
#	49757
#	68225
#	71455
#	81295
#	82982
#	86510
#	102882
#	117295
#	120415
#	164712
#	179212
#	193115
#	211695
#
# Disc length: 2986 seconds
#
# Revision: 0
# Processed by: cddbd v1.5.1PL2 Copyright (c) Steve Scherf et al.
# Submitted via: CDex 1.51
#
DISCID=f30ba812
DTITLE=東京パノラマラウンジ - Manbo de Christmas
DYEAR=1900
DGENRE=Salsa
TTITLE0=SANTA CLAUS IS COMING TO TOWN
TTITLE1=WINTER WONDERLAND
TTITLE2=from LET IT SNOW! LET IT SNOW! LET IT SNOW!
TTITLE3=SLEIGH RIDE
TTITLE4=from LET IT SNOW! LET IT SNOW! LET IT SNOW!
TTITLE5=WHITE CHRISTMAS
TTITLE6=from LET IT SNOW! LET IT SNOW! LET IT SNOW!
TTITLE7=RUDOLPH THE RED NOSED REINDEER
TTITLE8=WE WISH YOU A MERRY CHRISTMAS
TTITLE9=from LET IT SNOW! LET IT SNOW! LET IT SNOW!
TTITLE10=THE CHRISTMAS SONG
TTITLE11=I SAW MOMMY KISSING SANTA CLAUS
TTITLE12=from LET IT SNOW! LET IT SNOW! LET IT SNOW!
TTITLE13=CALNAVAL EN BAKKEN
TTITLE14=JINGLE BELLS
TTITLE15=WHITE CHRISTMAS
TTITLE16=SILENT NIGHT
TTITLE17=LET IT SNOW! LET IT SNOW! LET IT SNOW!
EXTD=
EXTT0=
EXTT1=
EXTT2=
EXTT3=
EXTT4=
EXTT5=
EXTT6=
EXTT7=
EXTT8=
EXTT9=
EXTT10=
EXTT11=
EXTT12=
EXTT13=
EXTT14=
EXTT15=
EXTT16=
EXTT17=
PLAYORDER=
